<svg width="122" height="123" viewBox="0 0 122 123" fill="none" xmlns="http://www.w3.org/2000/svg">
<path d="M77.9812 74.4726C77.729 74.0713 77.1967 73.9505 76.7958 74.2029C76.3949 74.4554 76.2742 74.9883 76.5264 75.3896C76.8475 75.8988 77.0803 76.5548 77.2139 77.3035C76.4682 77.1697 75.8109 76.9345 75.3022 76.6152C74.9014 76.3627 74.369 76.4836 74.1168 76.8849C73.8647 77.2862 73.9854 77.8192 74.3862 78.0716C75.1815 78.5722 76.2053 78.9131 77.3433 79.0663C77.3152 80.3112 77.048 81.6468 76.4984 82.9004C75.8454 84.3892 74.7936 85.7615 73.2741 86.7173C72.0758 87.4725 70.5779 87.9752 68.7417 88.0853C67.0412 87.9925 65.4204 87.7422 64.0023 87.2826C61.6121 86.5059 59.8168 85.1228 59.2823 82.8594C59.2068 82.5358 59.153 82.1949 59.1271 81.8367C59.0344 80.5551 59.5517 79.213 60.6573 78.1514C61.6854 77.1632 63.2156 76.4124 65.2394 76.1491C65.7092 76.0887 66.0433 75.6593 65.9829 75.189C65.9635 75.0401 65.9075 74.9063 65.8256 74.792C64.1316 72.2869 63.6531 69.9286 64.0432 68.0515C64.2544 67.0309 64.7286 66.1527 65.401 65.4774C66.0735 64.8042 66.9506 64.3295 67.9722 64.118C69.8516 63.7275 72.2159 64.2087 74.7268 65.9197C75.119 66.1851 75.6535 66.0837 75.9186 65.691C75.9962 65.5745 76.0436 65.4472 76.0609 65.3177C76.3238 63.2938 77.0717 61.7597 78.0609 60.7305C79.1213 59.6237 80.4619 59.1058 81.7421 59.1986C82.0999 59.2245 82.4404 59.2763 82.7637 59.354C85.0246 59.889 86.4061 61.6885 87.182 64.0792C87.641 65.499 87.891 67.1215 87.9837 68.8239C87.8738 70.6622 87.3716 72.1618 86.6173 73.3614C85.6604 74.8826 84.2918 75.9355 82.8046 76.5893C81.5525 77.1395 80.2205 77.4071 78.9748 77.4351C78.8218 76.2959 78.4812 75.271 77.9812 74.4748V74.4726ZM78.076 83.5866C78.7097 82.1388 79.0243 80.5961 79.0631 79.1526C80.505 79.1138 82.0438 78.7987 83.4922 78.1644C85.1215 77.448 86.6367 76.3261 87.7682 74.7316C87.5677 76.4771 87.2639 78.1558 86.9147 79.6359C86.2983 82.2424 86.0095 84.3547 85.9556 86.0506C84.2616 86.1046 82.1538 86.3937 79.5481 87.0108C78.0674 87.3603 76.3928 87.6645 74.6492 87.8652C76.2419 86.7324 77.3626 85.2156 78.0782 83.5844L78.076 83.5866ZM68.6835 89.8071L68.7136 89.8092C70.1318 89.8848 71.5887 89.8567 73.0284 89.7532C75.4876 89.5762 77.8928 89.1771 79.936 88.6937C82.4835 88.0896 84.462 87.7875 85.9793 87.6969C86.1905 90.6486 87.2962 91.9022 88.473 92.1805C89.4622 92.4157 90.4838 92.0036 91.1907 91.2959C91.8976 90.5882 92.3071 89.5654 92.0744 88.5751C91.7963 87.397 90.542 86.2901 87.5958 86.0787C87.6863 84.5597 87.988 82.5789 88.5915 80.0286C89.0743 77.9831 89.473 75.573 89.6497 73.1133C89.7532 71.672 89.7812 70.2134 89.7058 68.7937L89.7036 68.7635C89.6045 66.9101 89.3286 65.1278 88.82 63.5527C87.8652 60.6032 86.1 58.3701 83.156 57.6731C82.7486 57.576 82.3197 57.5113 81.865 57.4789C80.089 57.3516 78.2528 58.0464 76.8238 59.5373C75.826 60.5773 75.0264 62.0079 74.5953 63.8138C72.0586 62.3811 69.6404 62.0143 67.6252 62.4351C66.2653 62.7177 65.0928 63.3542 64.1855 64.2605C63.2803 65.1667 62.6445 66.3426 62.3621 67.7041C61.944 69.7215 62.3104 72.1445 63.7393 74.6819C61.9354 75.1135 60.5064 75.9139 59.4676 76.9129C57.9783 78.3435 57.2844 80.1818 57.4115 81.9597C57.4438 82.415 57.5107 82.8443 57.6055 83.2521C58.3016 86.1973 60.5323 87.9645 63.4785 88.9225C65.0519 89.4338 66.8321 89.7078 68.6835 89.8071ZM22.5267 120.183C22.0525 120.183 21.6689 120.567 21.6689 121.041C21.6689 121.516 22.0525 121.9 22.5267 121.9L108.831 121.889C109.433 121.935 110.034 121.965 110.633 121.978C110.778 121.98 110.913 121.948 111.032 121.887H116.42C117.584 121.958 118.81 121.997 120.106 122.001C120.261 122.001 120.407 121.96 120.532 121.887H121.142C121.616 121.887 122 121.503 122 121.028L121.759 22.553C121.759 22.0783 121.375 21.6942 120.901 21.6942C120.427 21.6942 120.043 22.0783 120.043 22.553L120.06 29.2978C120.024 29.2137 119.985 29.1274 119.942 29.0432C118.584 26.2922 116.342 24.6718 113.959 24.1906C112.594 23.9145 111.191 24.0116 109.881 24.4798C109.446 24.6351 109.021 24.8315 108.612 25.071L108.56 9.33951C108.56 8.86483 108.176 8.48076 107.702 8.48076C107.228 8.48076 106.844 8.86483 106.844 9.33951L106.9 26.4066C106.719 26.59 106.545 26.7863 106.374 26.9913C104.437 29.3582 103.381 33.1514 104.286 38.347C104.366 38.8152 104.81 39.1324 105.28 39.0526C105.747 38.9727 106.064 38.5283 105.984 38.0579C105.174 33.4103 106.055 30.0962 107.702 28.0831C108.482 27.1315 109.437 26.4713 110.463 26.1045C111.485 25.7398 112.573 25.6643 113.625 25.8758C115.511 26.2577 117.297 27.5674 118.403 29.8049C119.198 31.4166 118.603 33.1794 117.472 34.4115C116.948 34.9832 116.312 35.4385 115.648 35.7147C115.026 35.9736 114.383 36.0707 113.797 35.9456C112.801 35.7319 111.911 34.83 111.485 32.9205C111.383 32.4566 110.924 32.1632 110.461 32.2668C109.997 32.3682 109.704 32.8277 109.808 33.2916C110.409 35.9822 111.819 37.2855 113.442 37.6328C114.383 37.8335 115.375 37.6954 116.308 37.307C117.2 36.9359 118.047 36.3318 118.737 35.5788C119.299 34.966 119.763 34.2496 120.071 33.4772L120.235 100.242C119.006 96.2477 117.198 92.4826 115.039 89.3065C113.444 86.7432 111.898 83.7462 110.756 80.7967C109.691 78.0436 108.978 75.3422 108.913 73.1004C108.859 71.2685 109.133 69.2554 109.974 66.9964C110.689 65.076 111.81 62.9745 113.487 60.655C114.834 58.9591 115.959 57.2351 116.715 55.8262C116.875 55.5781 116.903 55.2566 116.763 54.9739C115.847 53.1356 114.31 50.7233 112.446 48.5074C110.741 46.4814 108.758 44.615 106.715 43.4844C104.532 42.2761 102.269 41.8856 100.152 42.9407C99.7169 43.1586 99.2837 43.4434 98.8569 43.8037C97.7147 44.7682 97.0185 46.2548 97.0293 47.9788C97.0379 49.4503 97.5638 51.0923 98.7729 52.7062C99.0574 53.086 99.5962 53.1636 99.9755 52.8788C100.355 52.594 100.432 52.0546 100.148 51.6749C99.1759 50.3781 98.7556 49.0965 98.7492 47.9723C98.7406 46.7748 99.2039 45.7586 99.9647 45.1177C100.271 44.8588 100.592 44.6495 100.924 44.4834C102.458 43.7174 104.18 44.0475 105.89 44.9926C107.739 46.0153 109.558 47.735 111.135 49.6121C112.767 51.5519 114.135 53.6556 115.021 55.3472C114.528 56.2275 113.894 57.2222 113.155 58.2471C112.814 58.6808 112.489 59.1101 112.183 59.5309C111.801 60.012 111.398 60.4932 110.98 60.9636C109.347 62.8019 107.48 64.4741 105.609 65.4429C103.874 66.3426 102.142 66.6252 100.631 65.8183C100.318 65.6521 100.006 65.4321 99.6932 65.1537C98.9496 64.4913 98.5143 63.4643 98.5531 62.2689C98.5897 61.1448 99.0466 59.8739 100.053 58.6031C100.346 58.2298 100.284 57.6904 99.9109 57.397C99.538 57.1035 98.9992 57.1661 98.7061 57.5394C97.4539 59.1209 96.8849 60.7478 96.8353 62.2172C96.7771 63.9433 97.4323 65.4493 98.5466 66.444C98.9518 66.8043 99.3764 67.0999 99.8203 67.3373C101.909 68.4528 104.18 68.1227 106.396 66.9748C107.189 66.5648 107.974 66.047 108.739 65.4558C108.603 65.773 108.48 66.0858 108.364 66.3965C107.437 68.8865 107.135 71.1153 107.196 73.1478C107.267 75.6032 108.021 78.4988 109.153 81.4181C109.441 82.1625 109.754 82.9091 110.086 83.6513C109.109 82.812 108.101 82.0956 107.075 81.5195C105.129 80.4256 103.111 79.8366 101.101 79.8819C98.8311 79.9337 96.6026 80.7881 94.5357 82.6286C93.6434 83.4226 93.2102 84.277 93.1929 85.2091C93.1757 86.0981 93.555 86.9935 94.2878 87.9191C96.9388 91.2721 100.646 92.8149 104.489 94.4115C112.084 97.5682 120.235 100.958 120.282 120.107V120.172H116.524C100.532 119.164 97.3828 111.576 94.4365 104.475C92.8416 100.628 91.3006 96.9166 87.9514 94.2626C87.0268 93.529 86.1324 93.1493 85.2444 93.1666C84.3133 93.1838 83.4598 93.6175 82.6667 94.5108C80.8283 96.58 79.9748 98.8088 79.9231 101.083C79.8778 103.096 80.4662 105.116 81.5589 107.064C82.143 108.106 82.8715 109.129 83.7228 110.119C82.9641 109.778 82.2012 109.457 81.4425 109.163C78.5265 108.033 75.6341 107.275 73.1815 107.204C71.1512 107.146 68.9249 107.448 66.4377 108.374C66.1144 108.495 65.789 108.624 65.4571 108.766C66.0153 108.033 66.5045 107.28 66.8968 106.522C68.0434 104.304 68.3731 102.03 67.2588 99.9394C67.0218 99.4971 66.7265 99.0699 66.3666 98.6643C65.3752 97.5488 63.8686 96.8928 62.1444 96.9511C60.6767 97.0007 59.0517 97.5703 57.4719 98.8239C57.099 99.1174 57.0365 99.6589 57.3296 100.03C57.6227 100.403 58.1637 100.466 58.5344 100.172C59.8038 99.1648 61.0733 98.7096 62.1962 98.6707C63.388 98.6297 64.4161 99.0677 65.0777 99.8121C65.3536 100.123 65.5734 100.436 65.7415 100.751C66.5476 102.263 66.2653 103.998 65.3665 105.735C64.3988 107.608 62.7285 109.476 60.8922 111.112C60.5517 111.416 60.2047 111.712 59.8556 111.996C59.3318 112.372 58.7995 112.773 58.2542 113.203C58.209 113.239 58.1658 113.28 58.1292 113.323C57.1227 114.048 56.1464 114.67 55.2821 115.157C53.5924 114.271 51.491 112.898 49.5535 111.267C47.6784 109.686 45.9607 107.865 44.9391 106.015C43.9951 104.304 43.6653 102.58 44.4305 101.044C44.5964 100.712 44.8055 100.39 45.0641 100.084C45.7042 99.3223 46.7193 98.8606 47.9155 98.8671C49.0384 98.8736 50.3186 99.2965 51.6139 100.267C51.9932 100.552 52.532 100.475 52.8165 100.095C53.101 99.715 53.0234 99.1756 52.6441 98.8908C51.0298 97.6804 49.3897 97.1561 47.922 97.1453C46.1999 97.1345 44.7128 97.8314 43.7515 98.975C43.3916 99.4022 43.1071 99.8359 42.8895 100.272C41.8334 102.391 42.2256 104.654 43.4326 106.842C44.5619 108.889 46.4262 110.874 48.45 112.579C50.6634 114.445 53.073 115.984 54.9093 116.901C55.1916 117.041 55.5127 117.013 55.7606 116.853C57.2714 116.04 59.1465 114.801 60.959 113.319C63.1746 111.744 65.1876 110.676 67.0368 109.985C69.2934 109.144 71.3042 108.87 73.134 108.924C75.3755 108.989 78.0717 109.701 80.8218 110.769C84.0569 112.022 87.3436 113.764 90.0571 115.522C90.0872 115.541 90.1196 115.559 90.1497 115.576C93.0873 117.464 96.4797 119.052 100.057 120.176L33.5033 120.183C34.2491 119.874 34.9387 119.421 35.5336 118.875C36.2858 118.185 36.8892 117.337 37.2599 116.443C37.6479 115.509 37.7858 114.514 37.5854 113.574C37.2405 111.949 35.9366 110.54 33.249 109.936C32.7856 109.834 32.3266 110.126 32.2253 110.59C32.124 111.054 32.4149 111.513 32.8783 111.615C34.7857 112.042 35.6888 112.933 35.9 113.93C36.025 114.514 35.928 115.157 35.6694 115.783C35.3935 116.448 34.9387 117.082 34.3676 117.608C33.1348 118.741 31.374 119.337 29.7661 118.541C27.5311 117.436 26.2229 115.647 25.8414 113.757C25.6281 112.704 25.7057 111.615 26.0699 110.592C26.4363 109.565 27.0936 108.609 28.0462 107.828C30.0549 106.179 33.3654 105.297 38.01 106.108C38.4777 106.188 38.9238 105.873 39.0035 105.403C39.0833 104.934 38.7686 104.488 38.2988 104.408C33.1068 103.502 29.32 104.557 26.9557 106.499C26.7509 106.667 26.5548 106.844 26.3716 107.025L9.32361 106.969C8.84945 106.969 8.46582 107.353 8.46582 107.828C8.46582 108.303 8.84945 108.687 9.32361 108.687L25.0375 108.738C24.8004 109.148 24.6043 109.573 24.447 110.009C23.9793 111.321 23.8823 112.726 24.1582 114.091C24.641 116.478 26.2574 118.722 29.0053 120.081C29.0765 120.116 29.1476 120.15 29.2209 120.183H22.5223H22.5267ZM17.2441 113.908C17.7183 113.908 18.1019 113.524 18.1019 113.049C18.1019 112.575 17.7183 112.191 17.2441 112.191H0.857788C0.383636 112.191 0 112.575 0 113.049C0 113.524 0.383636 113.908 0.857788 113.908H17.2441ZM88.8652 90.4997C88.2359 90.3508 87.682 89.559 87.5807 87.6796C89.4579 87.7811 90.2489 88.3356 90.3976 88.9656C90.4838 89.3346 90.2898 89.7553 89.973 90.0746C89.654 90.394 89.2338 90.5882 88.8652 90.4997ZM112.058 17.2667C112.058 17.7436 112.444 18.1298 112.92 18.1298C113.396 18.1298 113.782 17.7436 113.782 17.2667V0.862085C113.782 0.385244 113.396 -0.000976562 112.92 -0.000976562C112.444 -0.000976562 112.058 0.385244 112.058 0.862085V17.2667ZM113.614 90.271C113.765 90.5126 113.916 90.75 114.067 90.983C114.099 91.0305 114.133 91.0758 114.172 91.1146C116.836 95.2767 118.868 100.386 119.765 105.621C116.651 97.6027 110.758 95.1516 105.15 92.8192C101.514 91.3067 98.0035 89.8481 95.637 86.8533C95.1542 86.2426 94.9042 85.7054 94.9128 85.235C94.9215 84.8078 95.1693 84.372 95.6823 83.9145C97.4259 82.361 99.2729 81.6425 101.135 81.5994C102.823 81.5605 104.547 82.0741 106.234 83.0213C107.965 83.9944 109.655 85.4249 111.228 87.1942C112.062 88.1328 112.86 89.1619 113.614 90.2688V90.271ZM105.635 119.766C98.6112 118.56 91.8157 115.302 87.2315 111.22C85.4642 109.645 84.0353 107.955 83.0633 106.22C82.115 104.531 81.6042 102.805 81.643 101.115C81.6861 99.2533 82.4038 97.402 83.9556 95.6565C84.4125 95.143 84.8478 94.8948 85.2746 94.8862C85.7444 94.8776 86.2811 95.1279 86.891 95.6112C89.8825 97.9824 91.3394 101.495 92.8503 105.135C95.1779 110.749 97.6263 116.648 105.637 119.766H105.635Z" fill="white"/>
</svg>
