<svg width="122" height="123" viewBox="0 0 122 123" fill="none" xmlns="http://www.w3.org/2000/svg">
<path d="M44.0188 48.5266C44.271 48.9279 44.8033 49.0487 45.2042 48.7963C45.6051 48.5439 45.7258 48.0109 45.4736 47.6096C45.1525 47.1004 44.9197 46.4445 44.7861 45.6958C45.5318 45.8296 46.1891 46.0648 46.6978 46.3841C47.0986 46.6365 47.631 46.5157 47.8832 46.1144C48.1353 45.7131 48.0146 45.1801 47.6138 44.9277C46.8185 44.4271 45.7947 44.0862 44.6567 43.933C44.6848 42.6881 44.952 41.3525 45.5016 40.0989C46.1546 38.6102 47.2064 37.2379 48.7259 36.2821C49.9242 35.5269 51.4221 35.0242 53.2583 34.9142C54.9588 35.007 56.5796 35.2572 57.9977 35.7168C60.3879 36.4935 62.1832 37.8766 62.7177 40.1399C62.7932 40.4636 62.847 40.8045 62.8729 41.1626C62.9656 42.4443 62.4483 43.7863 61.3427 44.8479C60.3146 45.836 58.7844 46.5869 56.7606 46.8501C56.2908 46.9105 55.9567 47.3399 56.0171 47.8103C56.0365 47.9591 56.0925 48.0929 56.1744 48.2073C57.8684 50.7123 58.3469 53.0705 57.9568 54.9477C57.7456 55.9682 57.2714 56.8464 56.599 57.5217C55.9265 58.1949 55.0494 58.6696 54.0278 58.881C52.1484 59.2715 49.7841 58.7904 47.2732 57.0794C46.881 56.814 46.3465 56.9154 46.0814 57.3081C46.0038 57.4246 45.9564 57.5519 45.9391 57.6814C45.6762 59.7052 44.9283 61.2393 43.9391 62.2685C42.8787 63.3753 41.5381 63.8932 40.2579 63.8004C39.9001 63.7745 39.5596 63.7227 39.2363 63.645C36.9754 63.11 35.5939 61.3105 34.818 58.9199C34.359 57.5001 34.109 55.8776 34.0163 54.1752C34.1262 52.337 34.6284 50.8374 35.3827 49.6378C36.3396 48.1167 37.7082 47.0637 39.1954 46.41C40.4475 45.8598 41.7795 45.5922 43.0252 45.5642C43.1782 46.7034 43.5188 47.7283 44.0188 48.5244V48.5266ZM43.924 39.4128C43.2903 40.8606 42.9757 42.4033 42.9369 43.8467C41.495 43.8856 39.9562 44.2006 38.5078 44.8349C36.8785 45.5512 35.3633 46.6732 34.2318 48.2677C34.4323 46.5222 34.7361 44.8435 35.0853 43.3634C35.7017 40.757 35.9905 38.6447 36.0444 36.9488C37.7384 36.8949 39.8462 36.6057 42.4519 35.9887C43.9326 35.6391 45.6072 35.3349 47.3508 35.1342C45.7581 36.267 44.6374 37.7838 43.9218 39.415L43.924 39.4128ZM53.3165 33.1924L53.2864 33.1902C51.8682 33.1147 50.4113 33.1428 48.9716 33.2463C46.5124 33.4233 44.1072 33.8224 42.064 34.3057C39.5165 34.9099 37.538 35.2119 36.0207 35.3025C35.8095 32.3509 34.7038 31.0973 33.527 30.819C32.5378 30.5838 31.5162 30.9959 30.8093 31.7036C30.1024 32.4113 29.6929 33.434 29.9256 34.4244C30.2037 35.6025 31.458 36.7093 34.4042 36.9208C34.3137 38.4397 34.012 40.4204 33.4085 42.9707C32.9257 45.0162 32.527 47.4262 32.3503 49.8859C32.2468 51.3272 32.2188 52.7857 32.2942 54.2055L32.2964 54.2357C32.3955 56.0891 32.6714 57.8713 33.18 59.4463C34.1348 62.3958 35.9 64.6289 38.844 65.3258C39.2514 65.4229 39.6803 65.4877 40.135 65.52C41.911 65.6473 43.7472 64.9526 45.1762 63.4616C46.174 62.4217 46.9736 60.9912 47.4047 59.1852C49.9414 60.6179 52.3596 60.9847 54.3748 60.564C55.7347 60.2813 56.9072 59.6448 57.8145 58.7386C58.7197 57.8324 59.3555 56.6565 59.6379 55.2951C60.056 53.2777 59.6896 50.8547 58.2607 48.3173C60.0646 47.8858 61.4936 47.0853 62.5324 46.0863C64.0217 44.6558 64.7156 42.8175 64.5885 41.0397C64.5562 40.5844 64.4893 40.155 64.3945 39.7472C63.6984 36.8021 61.4677 35.035 58.5215 34.077C56.9481 33.5657 55.1679 33.2916 53.3165 33.1924ZM99.4733 2.81741C99.9475 2.81741 100.331 2.43336 100.331 1.95868C100.331 1.484 99.9475 1.09995 99.4733 1.09995L13.1686 1.11073C12.5673 1.06542 11.9659 1.03522 11.3668 1.02227C11.2224 1.02011 11.0866 1.05247 10.9681 1.11289H5.57994C4.4161 1.04169 3.18977 1.00285 1.89446 0.998535C1.73929 0.998535 1.59273 1.03953 1.46772 1.11289H0.857789C0.383634 1.11289 0 1.49695 0 1.97163L0.241388 100.445C0.241388 100.92 0.625022 101.304 1.09918 101.304C1.57333 101.304 1.95697 100.92 1.95697 100.445L1.93972 93.7007C1.97636 93.7848 2.01516 93.8711 2.05826 93.9553C3.41607 96.7063 5.65753 98.3266 8.04123 98.8078C9.4055 99.084 10.8086 98.9869 12.119 98.5187C12.5543 98.3633 12.9789 98.167 13.3884 97.9275L13.4401 113.659C13.4401 114.133 13.8238 114.517 14.2979 114.517C14.7721 114.517 15.1557 114.133 15.1557 113.659L15.0997 96.5919C15.2807 96.4085 15.4553 96.2122 15.6256 96.0072C17.5631 93.6403 18.6192 89.8472 17.714 84.6516C17.6342 84.1834 17.1903 83.8663 16.7204 83.9461C16.2527 84.0259 15.9359 84.4704 16.0157 84.9408C16.826 89.5883 15.9445 92.9024 14.2979 94.9154C13.5177 95.8669 12.5629 96.5272 11.537 96.894C10.5155 97.2586 9.42706 97.3341 8.3753 97.1227C6.48945 96.7408 4.70275 95.4311 3.59711 93.1937C2.80182 91.5819 3.39667 89.8191 4.52818 88.5871C5.0519 88.0154 5.6877 87.5601 6.35152 87.2839C6.97438 87.025 7.61665 86.9279 8.20288 87.0531C9.1986 87.2667 10.0887 88.1686 10.5155 90.0781C10.6168 90.5419 11.0758 90.8354 11.5392 90.7318C12.0026 90.6304 12.2957 90.1708 12.1922 89.7069C11.5909 87.0164 10.1814 85.7132 8.55849 85.3658C7.61665 85.1651 6.62523 85.3032 5.69201 85.6916C4.79974 86.0627 3.95273 86.6669 3.26305 87.4199C2.70053 88.0326 2.23715 88.749 1.92895 89.5214L1.76515 22.7581C2.99364 26.7519 4.80189 30.5169 6.96145 33.693C8.55634 36.2562 10.1017 39.2531 11.2439 42.2026C12.3086 44.9557 13.022 47.6571 13.0867 49.8988C13.1406 51.7307 12.8668 53.7437 12.0263 56.0028C11.3107 57.923 10.19 60.0246 8.51323 62.344C7.1662 64.0399 6.04116 65.7638 5.28467 67.1728C5.12518 67.4209 5.09716 67.7424 5.23725 68.025C6.15323 69.8633 7.68993 72.2755 9.55422 74.4914C11.259 76.5174 13.2418 78.3838 15.285 79.5143C17.4683 80.7226 19.7313 81.1131 21.8478 80.0581C22.2831 79.8401 22.7163 79.5553 23.1431 79.195C24.2853 78.2306 24.9815 76.744 24.9707 75.02C24.9621 73.5485 24.4362 71.9066 23.2271 70.2927C22.9426 69.9129 22.4038 69.8353 22.0245 70.1201C21.6452 70.4049 21.5676 70.9443 21.8521 71.324C22.8241 72.6207 23.2444 73.9024 23.2508 75.0265C23.2594 76.224 22.7961 77.2402 22.0353 77.881C21.7292 78.1399 21.4081 78.3492 21.0762 78.5154C19.5416 79.2813 17.8196 78.9512 16.1105 78.0062C14.2613 76.9835 12.4423 75.2638 10.8646 73.3867C9.23308 71.447 7.8645 69.3433 6.97869 67.6517C7.47225 66.7714 8.10589 65.7768 8.84514 64.7519C9.18567 64.3182 9.51111 63.8889 9.81716 63.4681C10.1986 62.987 10.6017 62.5058 11.0198 62.0355C12.6535 60.1972 14.5199 58.525 16.3907 57.5562C18.1256 56.6565 19.8585 56.3739 21.3693 57.1808C21.6818 57.3469 21.9943 57.567 22.3068 57.8454C23.0504 58.5078 23.4857 59.5348 23.4469 60.7301C23.4103 61.8542 22.9534 63.1251 21.9469 64.3959C21.6538 64.7692 21.7163 65.3086 22.0891 65.602C22.462 65.8954 23.0008 65.8329 23.2939 65.4596C24.5461 63.8781 25.1151 62.2512 25.1647 60.7819C25.2229 59.0558 24.5677 57.5498 23.4534 56.5551C23.0482 56.1948 22.6236 55.8992 22.1797 55.6618C20.0912 54.5464 17.8196 54.8765 15.604 56.0243C14.8109 56.4343 14.0264 56.9521 13.2612 57.5433C13.397 57.2261 13.5199 56.9133 13.6363 56.6026C14.563 54.1127 14.8647 51.8839 14.8044 49.8514C14.7333 47.396 13.9789 44.5005 12.8474 41.5812C12.5586 40.8368 12.2461 40.0903 11.9142 39.3481C12.8905 40.1874 13.8992 40.9037 14.9251 41.4798C16.8713 42.5737 18.8886 43.1628 20.8994 43.1174C23.1689 43.0657 25.3974 42.2112 27.4643 40.3708C28.3566 39.5768 28.7898 38.7224 28.8071 37.7903C28.8243 36.9013 28.445 36.0059 27.7122 35.0803C25.0612 31.7274 21.3542 30.1847 17.5114 28.588C9.9163 25.4314 1.76515 22.0418 1.71773 2.89293V2.8282H5.47649C21.4684 3.83581 24.6172 11.4242 27.5635 18.5249C29.1584 22.3719 30.6994 26.083 34.0486 28.7369C34.9732 29.4705 35.8676 29.8502 36.7556 29.833C37.6867 29.8157 38.5402 29.382 39.3333 28.4888C41.1717 26.4196 42.0252 24.1908 42.0769 21.9167C42.1222 19.9036 41.5338 17.8841 40.4411 15.9357C39.857 14.8936 39.1285 13.8709 38.2772 12.8806C39.0359 13.2215 39.7988 13.5429 40.5575 13.8364C43.4735 14.967 46.3659 15.7243 48.8185 15.7955C50.8488 15.8538 53.0751 15.5517 55.5623 14.6261C55.8856 14.5052 56.211 14.3758 56.5429 14.2334C55.9847 14.967 55.4955 15.72 55.1032 16.4773C53.9566 18.6953 53.6269 20.9695 54.7412 23.0602C54.9782 23.5025 55.2735 23.9297 55.6334 24.3354C56.6248 25.4509 58.1314 26.1068 59.8556 26.0485C61.3233 25.9989 62.9483 25.4293 64.5281 24.1757C64.901 23.8823 64.9635 23.3407 64.6704 22.9696C64.3773 22.5963 63.8363 22.5337 63.4656 22.8272C62.1962 23.8348 60.9267 24.29 59.8038 24.3289C58.612 24.3699 57.5839 23.9319 56.9223 23.1875C56.6464 22.8768 56.4266 22.5639 56.2585 22.2489C55.4524 20.7365 55.7347 19.0017 56.6335 17.2648C57.6012 15.392 59.2715 13.5235 61.1078 11.888C61.4483 11.5838 61.7953 11.2882 62.1444 11.0034C62.6682 10.628 63.2005 10.2267 63.7458 9.79731C63.791 9.76064 63.8342 9.71964 63.8708 9.67648C64.8773 8.95152 65.8536 8.33013 66.7179 7.84251C68.4076 8.72929 70.509 10.1015 72.4465 11.7327C74.3216 13.3142 76.0393 15.1353 77.0609 16.9843C78.0049 18.6953 78.3347 20.4193 77.5695 21.9555C77.4036 22.2878 77.1945 22.6093 76.9359 22.9156C76.2958 23.6773 75.2807 24.139 74.0845 24.1325C72.9616 24.1261 71.6814 23.7032 70.3861 22.7322C70.0068 22.4474 69.468 22.5251 69.1835 22.9049C68.899 23.2846 68.9766 23.824 69.3559 24.1088C70.9702 25.3192 72.6103 25.8435 74.078 25.8543C75.8001 25.8651 77.2872 25.1682 78.2485 24.0247C78.6084 23.5975 78.8929 23.1638 79.1105 22.7279C80.1666 20.6091 79.7744 18.3458 78.5674 16.158C77.4381 14.1104 75.5738 12.1254 73.55 10.4209C71.3366 8.55452 68.927 7.01614 67.0907 6.09915C66.8084 5.95891 66.4873 5.98695 66.2394 6.14662C64.7286 6.96004 62.8535 8.19852 61.041 9.6808C58.8254 11.2559 56.8124 12.3239 54.9632 13.0143C52.7066 13.8558 50.6958 14.1298 48.866 14.0759C46.6245 14.0111 43.9283 13.2991 41.1782 12.2311C37.9431 10.9775 34.6564 9.23633 31.9429 7.47787C31.9128 7.45845 31.8804 7.44119 31.8503 7.42393C28.9127 5.53601 25.5203 3.94801 21.9426 2.82388L88.4967 2.81741C87.7509 3.12595 87.0613 3.57905 86.4664 4.12493C85.7142 4.81537 85.1108 5.66331 84.7401 6.55656C84.3521 7.49081 84.2142 8.48548 84.4146 9.4262C84.7595 11.0509 86.0634 12.4598 88.751 13.0639C89.2144 13.1654 89.6734 12.8741 89.7747 12.4102C89.876 11.9463 89.5851 11.4867 89.1217 11.3853C87.2143 10.9581 86.3112 10.067 86.1 9.07019C85.975 8.48548 86.072 7.84251 86.3306 7.2168C86.6065 6.55225 87.0613 5.91791 87.6324 5.39145C88.8652 4.2587 90.626 3.6632 92.2339 4.45936C94.4689 5.56406 95.7771 7.35273 96.1586 9.24281C96.3719 10.2957 96.2943 11.3853 95.9301 12.408C95.5637 13.4351 94.9064 14.3909 93.9538 15.1719C91.9451 16.8204 88.6346 17.7028 83.99 16.8916C83.5223 16.8117 83.0762 17.1267 82.9965 17.5971C82.9167 18.0653 83.2314 18.5119 83.7012 18.5918C88.8932 19.498 92.68 18.4429 95.0443 16.501C95.2491 16.3327 95.4452 16.1558 95.6284 15.9746L112.676 16.0307C113.151 16.0307 113.534 15.6466 113.534 15.1719C113.534 14.6973 113.151 14.3132 112.676 14.3132L96.9625 14.2614C97.1996 13.8515 97.3957 13.4264 97.553 12.9906C98.0207 11.6788 98.1177 10.2741 97.8418 8.90837C97.359 6.52204 95.7426 4.27812 92.9947 2.91882C92.9235 2.8843 92.8524 2.84978 92.7791 2.81741H99.4777H99.4733ZM104.756 9.09177C104.282 9.09177 103.898 9.47583 103.898 9.9505C103.898 10.4252 104.282 10.8092 104.756 10.8092H121.142C121.616 10.8092 122 10.4252 122 9.9505C122 9.47583 121.616 9.09177 121.142 9.09177H104.756ZM33.1348 32.4998C33.7641 32.6487 34.318 33.4405 34.4193 35.3198C32.5421 35.2184 31.7511 34.6639 31.6024 34.0339C31.5162 33.6649 31.7102 33.2442 32.027 32.9248C32.346 32.6055 32.7662 32.4113 33.1348 32.4998ZM9.94216 105.732C9.94216 105.255 9.55637 104.869 9.08006 104.869C8.60375 104.869 8.21796 105.255 8.21796 105.732V122.136C8.21796 122.613 8.60375 122.999 9.08006 122.999C9.55637 122.999 9.94216 122.613 9.94216 122.136V105.732ZM8.38607 32.7285C8.2352 32.4868 8.08434 32.2495 7.93347 32.0165C7.90114 31.969 7.86666 31.9237 7.82786 31.8849C5.16398 27.7228 3.13158 22.6136 2.23499 17.3792C5.34933 25.3969 11.2418 27.848 16.8497 30.1804C20.4856 31.6928 23.9965 33.1514 26.363 36.1462C26.8458 36.7568 27.0958 37.294 27.0872 37.7644C27.0785 38.1916 26.8307 38.6274 26.3177 39.0849C24.5741 40.6383 22.7271 41.3568 20.865 41.4C19.1774 41.4388 17.4532 40.9253 15.7656 39.9781C14.035 39.005 12.3453 37.5745 10.7719 35.8053C9.93785 34.8667 9.14041 33.8375 8.38607 32.7307V32.7285ZM16.3648 3.23383C23.3888 4.43994 30.1843 7.69794 34.7685 11.7802C36.5358 13.3552 37.9647 15.0446 38.9367 16.7794C39.885 18.4688 40.3958 20.1949 40.357 21.8843C40.3139 23.7463 39.5962 25.5976 38.0444 27.3431C37.5875 27.8566 37.1522 28.1047 36.7254 28.1133C36.2556 28.122 35.7189 27.8717 35.109 27.3884C32.1175 25.0172 30.6606 21.5046 29.1497 17.8647C26.8221 12.2505 24.3737 6.35159 16.3626 3.23383H16.3648Z" fill="white"/>
</svg>
