<svg width="380" height="75" viewBox="0 0 380 75" fill="none" xmlns="http://www.w3.org/2000/svg">
<path d="M371.663 32.5439C369.233 32.8528 364.853 34.7509 346.85 35.013C334.613 34.8775 322.757 33.4098 311.63 31.8801C294.297 29.4739 275.364 26.572 257.85 27.4646C243.986 28.1533 234.409 31.3427 228.559 34.5646C221.834 38.3085 216.744 43.9443 217.692 44.4978C217.712 44.5646 218.321 44.4815 219.448 44.3272C264.02 40.0815 246.205 74.343 246.205 74.343C246.205 74.343 268.125 69.9926 264.519 54.2579C263.316 49.0095 259.358 45.8915 254.232 44.118C269.105 45.549 281.37 47.9492 296.815 49.8399C314.672 51.9978 334.872 52.5617 351.96 47.9285C365.736 44.1937 373.054 37.5119 372.752 37.738C373.005 37.4964 380.433 30.401 379.98 30.8333L371.663 32.5439ZM367.066 37.9371C349.373 50.0844 320.023 50.0089 297.196 47.5475C277.872 45.4391 259.231 41.8956 240.405 41.9398C233.212 41.928 227.46 42.5037 223.58 43.1425C221.976 43.4071 220.03 43.7762 218.481 44.2098C220.289 43.0011 223.032 39.9985 230.026 36.5325C235.664 33.7794 244.702 30.9824 258.05 30.4768C275.202 29.813 293.868 32.7329 310.988 35.1105C322.156 36.6433 334.214 38.1247 346.833 38.2204C355.157 38.0746 361.143 37.8019 369.248 36.2152C367.899 37.2753 366.772 38.1612 367.066 37.9371Z" fill="#3B181E"/>
<path d="M58.7313 51.4565C78.1434 51.4639 95.9006 47.9968 111.123 45.927C116.44 45.1732 121.448 44.5647 126.133 44.1077C120.991 45.8791 117.019 48.9996 115.813 54.2591C112.207 69.9933 134.126 74.3433 134.126 74.3433C134.126 74.3433 116.313 40.0839 160.882 44.3283C161.989 44.4791 162.621 44.5615 162.64 44.499C163.446 44.024 159.169 38.6019 151.84 34.5048C130.37 22.734 94.0389 28.1756 68.7229 31.8799C46.1815 35.0474 28.8773 36.637 8.05332 32.3596C5.37076 31.7977 2.67662 31.1102 0 30.4879L4.49439 34.8061C18.5671 48.0084 37.4825 51.4782 58.7313 51.4565ZM69.3728 35.1084C94.0015 31.5023 128.821 26.0188 150.377 36.4747C157.307 39.9245 160.045 43.0476 161.805 44.198C158.161 43.1829 152.67 42.4969 148.467 42.2148C136.231 41.3818 122.91 42.5457 110.766 44.0529C95.3897 45.8791 77.7135 49.0682 58.7465 48.8545C44.0289 48.7215 29.569 46.7822 17.1911 40.3506C14.5991 38.8149 10.8208 36.2775 11.1105 36.2262C32.2447 39.4668 46.6197 38.3038 69.3728 35.1084Z" fill="#3B181E"/>
<path d="M166.968 48.5684C160.605 49.5323 156.226 53.1535 155.212 58.0302C154.263 62.8017 156.756 67.9114 162.276 70.3175C166.652 72.4508 173.04 71.9935 176.253 68.8389C179.739 65.6775 177.443 60.3699 173.612 59.6548C172.996 59.5354 172.665 59.5324 172.665 59.5324C172.594 59.5741 174.173 59.6632 175.474 61.1825C177.073 63.0976 177.073 65.9593 174.802 67.7063C172.467 69.5336 168.17 70.1833 163.761 68.1006C159.992 66.3306 157.766 62.2922 158.627 58.5195C159.401 54.4294 163.492 51.7676 167.555 51.052C171.777 50.2755 175.674 51.3181 179.542 53.0649C184.244 55.2751 187.065 57.3568 190.165 59.3745C179.999 49.9241 169.316 41.9262 161.141 31.39C157.283 26.3238 153.398 19.1044 156.162 13.5637C156.325 13.251 156.771 12.3918 157.332 11.8595C158.521 11.6863 160.985 11.9301 163.591 13.0815C168.471 15.2527 172.243 19.6465 174.518 23.8056C175.857 26.2488 177.217 28.7314 178.598 31.2501L183.403 30.1821C183.146 27.72 182.887 25.2262 182.624 22.7039C182.378 20.2128 182.287 17.9145 182.774 15.5397C184.368 6.51844 189.942 5.1272 190.179 4.88735C193.788 6.7383 196.426 9.36949 197.544 15.4329C198.034 17.817 197.973 20.105 197.731 22.5975C197.479 25.1206 197.23 27.6146 196.984 30.077L201.788 31.1391C203.164 28.6327 204.52 26.1619 205.855 23.7296C207.159 21.3519 208.662 19.3571 210.532 17.4733C213.375 14.5983 218.606 11.2313 223.003 11.8588C225.472 14.2492 225.392 18.5548 224.5 21.6196C223.496 25.2127 221.403 28.4788 219.197 31.389C211.081 41.879 200.349 49.9399 190.164 59.3742C194.943 56.2641 200.256 52.48 206.392 51.1626C214.012 49.5453 218.363 53.5246 218.652 53.6057C220.272 54.8867 221.348 56.6458 221.703 58.5192C222.562 62.2919 220.337 66.3301 216.568 68.1004C212.161 70.1811 207.863 69.535 205.526 67.7063C204.241 66.7175 203.73 65.4435 203.73 64.2127C203.729 62.9856 204.237 61.9225 204.854 61.1823C206.156 59.6632 207.734 59.5739 207.664 59.5322C207.664 59.5322 207.332 59.5351 206.717 59.6548C202.816 60.3832 200.636 65.7209 204.075 68.8389C207.3 72.0049 213.696 72.4409 218.053 70.3175C223.562 67.9156 226.068 62.8123 225.117 58.0302C223.602 50.7406 214.198 46.1837 204.429 49.5532C210.99 44.5134 217.168 39.1291 222.257 33.0643C224.717 30.0543 227.151 26.6106 228.482 22.4502C230.055 17.6117 229.616 11.8568 225.362 8.47104C218.549 6.83601 211.52 10.3336 206.854 14.89C205.456 16.239 204.179 17.7707 203.059 19.3568C203.072 17.8449 202.977 16.3017 202.673 14.7987C201.506 8.32965 197.731 1.9371 190.181 0.317871L189.883 0.383753C182.624 1.83914 178.713 8.72397 177.641 14.9196C177.346 16.3881 177.257 17.8893 177.273 19.3613C174.5 15.4257 170.677 11.745 165.733 9.64093C162.353 8.21565 158.63 7.59406 154.971 8.47104C153.611 9.55382 152.767 10.7738 152.074 12.2225C148.895 19.0809 153.105 27.0051 158.082 33.0675C163.158 39.1003 169.433 44.5808 175.914 49.5582C173.104 48.5874 170.313 48.0515 166.968 48.5684Z" fill="#3B181E"/>
</svg>
