<svg width="240" height="78" viewBox="0 0 240 78" fill="none" xmlns="http://www.w3.org/2000/svg">
<path d="M2.575 73.65H2.75C2.91333 73.65 3.065 73.58 3.205 73.44C3.345 73.3 3.46167 73.1367 3.555 72.95C3.67167 72.7633 3.75333 72.565 3.8 72.355C3.84667 72.1217 3.87 71.9117 3.87 71.725V53.105C3.87 52.9417 3.84667 52.755 3.8 52.545C3.75333 52.335 3.67167 52.1367 3.555 51.95C3.46167 51.74 3.33333 51.5767 3.17 51.46C3.03 51.32 2.86667 51.25 2.68 51.25H2.505V50.9H8.245C10.415 50.9 12.1067 51.3783 13.32 52.335C14.5567 53.2917 15.175 54.5633 15.175 56.15C15.175 56.8267 15.0583 57.4333 14.825 57.97C14.5917 58.5067 14.2883 58.985 13.915 59.405C13.565 59.825 13.18 60.1867 12.76 60.49C12.34 60.77 11.9433 61.0033 11.57 61.19C12.55 61.3767 13.3667 61.6917 14.02 62.135C14.6733 62.5783 15.1983 63.0917 15.595 63.675C16.015 64.235 16.3067 64.8417 16.47 65.495C16.6333 66.1483 16.715 66.79 16.715 67.42C16.715 68.6333 16.4933 69.66 16.05 70.5C15.6067 71.3167 15.0117 71.9933 14.265 72.53C13.5417 73.0433 12.7017 73.4167 11.745 73.65C10.8117 73.8833 9.84333 74 8.84 74H2.575V73.65ZM14.335 67.63C14.1483 65.8333 13.5417 64.445 12.515 63.465C11.4883 62.485 10.0417 61.995 8.175 61.995H6.215V72.845H8.245C10.135 72.845 11.6167 72.425 12.69 71.585C13.7867 70.7217 14.335 69.5317 14.335 68.015V67.63ZM12.9 56.465C12.83 55.1117 12.3517 54.0383 11.465 53.245C10.6017 52.4517 9.435 52.055 7.965 52.055H6.215V60.875H8.035C9.015 60.875 9.80833 60.7467 10.415 60.49C11.045 60.2333 11.5467 59.9067 11.92 59.51C12.2933 59.09 12.55 58.635 12.69 58.145C12.83 57.655 12.9 57.1767 12.9 56.71V56.465ZM21.799 73.65H21.974C22.1607 73.65 22.324 73.5917 22.464 73.475C22.604 73.335 22.7207 73.1717 22.814 72.985C22.9307 72.7983 23.0124 72.6 23.059 72.39C23.129 72.18 23.164 71.9817 23.164 71.795V53.07C23.164 52.9067 23.129 52.72 23.059 52.51C23.0124 52.3 22.9307 52.1017 22.814 51.915C22.7207 51.7283 22.604 51.5767 22.464 51.46C22.324 51.32 22.1607 51.25 21.974 51.25H21.799V50.9H35.274V54.155H34.924C34.8774 53.6183 34.6674 53.1517 34.294 52.755C33.9207 52.335 33.3374 52.125 32.544 52.125H25.509V60.98H31.319C31.8557 60.98 32.299 60.8167 32.649 60.49C33.0224 60.1633 33.209 59.7783 33.209 59.335H33.559V63.71H33.209C33.209 63.29 33.034 62.9283 32.684 62.625C32.334 62.3217 31.879 62.17 31.319 62.17H25.509V72.775H33.174C33.6174 72.775 34.0024 72.67 34.329 72.46C34.6557 72.25 34.924 72.005 35.134 71.725C35.3674 71.4217 35.5307 71.1067 35.624 70.78C35.7407 70.43 35.799 70.1383 35.799 69.905H36.149V74H21.799V73.65ZM52.0442 51.81C50.3176 51.81 48.8126 52.125 47.5292 52.755C46.2692 53.3617 45.2192 54.1667 44.3792 55.17C43.5392 56.15 42.9092 57.2583 42.4892 58.495C42.0926 59.7317 41.8942 60.9567 41.8942 62.17C41.8942 63.5467 42.1626 64.9 42.6992 66.23C43.2359 67.5367 43.9709 68.7033 44.9042 69.73C45.8609 70.7333 46.9692 71.55 48.2292 72.18C49.4892 72.7867 50.8542 73.09 52.3242 73.09C52.7442 73.09 53.2342 73.0433 53.7942 72.95C54.3776 72.8567 54.9492 72.6817 55.5092 72.425C56.0692 72.145 56.5826 71.76 57.0492 71.27C57.5392 70.78 57.9126 70.1383 58.1692 69.345H58.5192V73.23C58.1692 73.23 57.7959 73.2767 57.3992 73.37C57.0259 73.4633 56.6059 73.5683 56.1392 73.685C55.5326 73.8483 54.8559 74 54.1092 74.14C53.3859 74.28 52.6159 74.35 51.7992 74.35C49.7692 74.35 47.9842 74 46.4442 73.3C44.9042 72.6 43.6209 71.69 42.5942 70.57C41.5676 69.45 40.7976 68.19 40.2842 66.79C39.7709 65.3667 39.5142 63.9317 39.5142 62.485C39.5142 61.0383 39.7709 59.6033 40.2842 58.18C40.7976 56.7567 41.5792 55.485 42.6292 54.365C43.6792 53.2217 44.9976 52.3 46.5842 51.6C48.1709 50.9 50.0376 50.55 52.1842 50.55C52.9542 50.55 53.6426 50.62 54.2492 50.76C54.8792 50.9 55.4392 51.04 55.9292 51.18C56.2792 51.2967 56.5942 51.39 56.8742 51.46C57.1776 51.5067 57.4692 51.53 57.7492 51.53V55.415H57.3992C57.2592 54.6917 57.0026 54.0967 56.6292 53.63C56.2559 53.14 55.8126 52.7667 55.2992 52.51C54.8092 52.2533 54.2726 52.0783 53.6892 51.985C53.1292 51.8683 52.5809 51.81 52.0442 51.81ZM77.5959 73.65H77.7709C77.9342 73.65 78.0859 73.5917 78.2259 73.475C78.3659 73.335 78.4825 73.1717 78.5759 72.985C78.6925 72.775 78.7742 72.565 78.8209 72.355C78.8675 72.1217 78.8909 71.9117 78.8909 71.725V62.205H67.6909V71.725C67.6909 71.9117 67.7142 72.1217 67.7609 72.355C67.8075 72.565 67.8775 72.7633 67.9709 72.95C68.0642 73.1367 68.1692 73.3 68.2859 73.44C68.4259 73.58 68.5892 73.65 68.7759 73.65H68.9509V74H64.0509V73.65H64.2259C64.3892 73.65 64.5409 73.5917 64.6809 73.475C64.8209 73.335 64.9375 73.1717 65.0309 72.985C65.1475 72.775 65.2292 72.565 65.2759 72.355C65.3225 72.1217 65.3459 71.9117 65.3459 71.725V53.07C65.3459 52.9067 65.3225 52.72 65.2759 52.51C65.2292 52.3 65.1592 52.1017 65.0659 51.915C64.9725 51.7283 64.8559 51.5767 64.7159 51.46C64.5759 51.32 64.4125 51.25 64.2259 51.25H64.0509V50.9H68.9509V51.25H68.7759C68.5892 51.25 68.4259 51.32 68.2859 51.46C68.1459 51.5767 68.0292 51.7283 67.9359 51.915C67.8659 52.1017 67.8075 52.3 67.7609 52.51C67.7142 52.72 67.6909 52.9067 67.6909 53.07V60.98H78.8909V53.07C78.8909 52.9067 78.8675 52.72 78.8209 52.51C78.7742 52.3 78.7042 52.1017 78.6109 51.915C78.5175 51.7283 78.4009 51.5767 78.2609 51.46C78.1209 51.32 77.9575 51.25 77.7709 51.25H77.5959V50.9H82.4959V51.25H82.3209C82.1342 51.25 81.9709 51.32 81.8309 51.46C81.6909 51.5767 81.5742 51.7283 81.4809 51.915C81.4109 52.1017 81.3525 52.3 81.3059 52.51C81.2592 52.72 81.2359 52.9067 81.2359 53.07V71.725C81.2359 71.9117 81.2592 72.1217 81.3059 72.355C81.3759 72.565 81.4575 72.7633 81.5509 72.95C81.6442 73.1367 81.7492 73.3 81.8659 73.44C82.0059 73.58 82.1575 73.65 82.3209 73.65H82.4959V74H77.5959V73.65ZM100.873 73.65H101.048C101.608 73.65 101.888 73.3933 101.888 72.88C101.888 72.6933 101.853 72.495 101.783 72.285L98.6333 63.78H92.5083L89.4633 72.145C89.3933 72.3317 89.3583 72.5067 89.3583 72.67C89.3583 72.9733 89.44 73.2183 89.6033 73.405C89.7667 73.5683 89.9417 73.65 90.1283 73.65H90.3033V74H86.4183V73.65H86.5933C86.8967 73.65 87.1883 73.475 87.4683 73.125C87.7717 72.7517 88.0167 72.32 88.2033 71.83L96.2183 50.48L104.058 71.62C104.222 72.0867 104.443 72.5417 104.723 72.985C105.027 73.4283 105.412 73.65 105.878 73.65H106.053V74H100.873V73.65ZM92.8583 62.59H98.2483L95.5533 55.275L92.8583 62.59ZM121.44 73.65H121.615C121.778 73.65 121.93 73.58 122.07 73.44C122.21 73.3 122.326 73.1367 122.42 72.95C122.536 72.7633 122.618 72.565 122.665 72.355C122.711 72.1217 122.735 71.9117 122.735 71.725V53.105C122.735 52.9417 122.711 52.755 122.665 52.545C122.618 52.335 122.536 52.1367 122.42 51.95C122.326 51.74 122.198 51.5767 122.035 51.46C121.895 51.32 121.731 51.25 121.545 51.25H121.37V50.9H127.11C129.28 50.9 130.971 51.3783 132.185 52.335C133.421 53.2917 134.04 54.5633 134.04 56.15C134.04 56.8267 133.923 57.4333 133.69 57.97C133.456 58.5067 133.153 58.985 132.78 59.405C132.43 59.825 132.045 60.1867 131.625 60.49C131.205 60.77 130.808 61.0033 130.435 61.19C131.415 61.3767 132.231 61.6917 132.885 62.135C133.538 62.5783 134.063 63.0917 134.46 63.675C134.88 64.235 135.171 64.8417 135.335 65.495C135.498 66.1483 135.58 66.79 135.58 67.42C135.58 68.6333 135.358 69.66 134.915 70.5C134.471 71.3167 133.876 71.9933 133.13 72.53C132.406 73.0433 131.566 73.4167 130.61 73.65C129.676 73.8833 128.708 74 127.705 74H121.44V73.65ZM133.2 67.63C133.013 65.8333 132.406 64.445 131.38 63.465C130.353 62.485 128.906 61.995 127.04 61.995H125.08V72.845H127.11C129 72.845 130.481 72.425 131.555 71.585C132.651 70.7217 133.2 69.5317 133.2 68.015V67.63ZM131.765 56.465C131.695 55.1117 131.216 54.0383 130.33 53.245C129.466 52.4517 128.3 52.055 126.83 52.055H125.08V60.875H126.9C127.88 60.875 128.673 60.7467 129.28 60.49C129.91 60.2333 130.411 59.9067 130.785 59.51C131.158 59.09 131.415 58.635 131.555 58.145C131.695 57.655 131.765 57.1767 131.765 56.71V56.465ZM151.753 51.81C150.027 51.81 148.522 52.125 147.238 52.755C145.978 53.3617 144.928 54.1667 144.088 55.17C143.248 56.15 142.618 57.2583 142.198 58.495C141.802 59.7317 141.603 60.9567 141.603 62.17C141.603 63.5467 141.872 64.9 142.408 66.23C142.945 67.5367 143.68 68.7033 144.613 69.73C145.57 70.7333 146.678 71.55 147.938 72.18C149.198 72.7867 150.563 73.09 152.033 73.09C152.453 73.09 152.943 73.0433 153.503 72.95C154.087 72.8567 154.658 72.6817 155.218 72.425C155.778 72.145 156.292 71.76 156.758 71.27C157.248 70.78 157.622 70.1383 157.878 69.345H158.228V73.23C157.878 73.23 157.505 73.2767 157.108 73.37C156.735 73.4633 156.315 73.5683 155.848 73.685C155.242 73.8483 154.565 74 153.818 74.14C153.095 74.28 152.325 74.35 151.508 74.35C149.478 74.35 147.693 74 146.153 73.3C144.613 72.6 143.33 71.69 142.303 70.57C141.277 69.45 140.507 68.19 139.993 66.79C139.48 65.3667 139.223 63.9317 139.223 62.485C139.223 61.0383 139.48 59.6033 139.993 58.18C140.507 56.7567 141.288 55.485 142.338 54.365C143.388 53.2217 144.707 52.3 146.293 51.6C147.88 50.9 149.747 50.55 151.893 50.55C152.663 50.55 153.352 50.62 153.958 50.76C154.588 50.9 155.148 51.04 155.638 51.18C155.988 51.2967 156.303 51.39 156.583 51.46C156.887 51.5067 157.178 51.53 157.458 51.53V55.415H157.108C156.968 54.6917 156.712 54.0967 156.338 53.63C155.965 53.14 155.522 52.7667 155.008 52.51C154.518 52.2533 153.982 52.0783 153.398 51.985C152.838 51.8683 152.29 51.81 151.753 51.81ZM163.34 73.65H163.515C163.702 73.65 163.865 73.5917 164.005 73.475C164.145 73.335 164.262 73.1717 164.355 72.985C164.472 72.7983 164.553 72.6 164.6 72.39C164.67 72.18 164.705 71.9817 164.705 71.795V53.07C164.705 52.9067 164.67 52.72 164.6 52.51C164.553 52.3 164.472 52.1017 164.355 51.915C164.262 51.7283 164.145 51.5767 164.005 51.46C163.865 51.32 163.702 51.25 163.515 51.25H163.34V50.9H176.815V54.155H176.465C176.418 53.6183 176.208 53.1517 175.835 52.755C175.462 52.335 174.878 52.125 174.085 52.125H167.05V60.98H172.86C173.397 60.98 173.84 60.8167 174.19 60.49C174.563 60.1633 174.75 59.7783 174.75 59.335H175.1V63.71H174.75C174.75 63.29 174.575 62.9283 174.225 62.625C173.875 62.3217 173.42 62.17 172.86 62.17H167.05V72.775H174.715C175.158 72.775 175.543 72.67 175.87 72.46C176.197 72.25 176.465 72.005 176.675 71.725C176.908 71.4217 177.072 71.1067 177.165 70.78C177.282 70.43 177.34 70.1383 177.34 69.905H177.69V74H163.34V73.65ZM187.292 73.65H187.467V74H182.427V73.65H182.602C182.789 73.65 182.952 73.5917 183.092 73.475C183.232 73.335 183.349 73.1717 183.442 72.985C183.559 72.7983 183.64 72.6 183.687 72.39C183.734 72.18 183.757 71.9817 183.757 71.795V53.07C183.757 52.9067 183.734 52.72 183.687 52.51C183.64 52.3 183.559 52.1017 183.442 51.915C183.349 51.7283 183.232 51.5767 183.092 51.46C182.952 51.32 182.789 51.25 182.602 51.25H182.427V50.9H195.902V54.61H195.552C195.552 53.77 195.365 53.1517 194.992 52.755C194.642 52.335 194.082 52.125 193.312 52.125H186.137V71.795C186.137 71.9817 186.16 72.18 186.207 72.39C186.254 72.6 186.324 72.7983 186.417 72.985C186.534 73.1717 186.662 73.335 186.802 73.475C186.942 73.5917 187.105 73.65 187.292 73.65ZM215.588 72.775V77.15H215.238C215.215 76.8467 215.133 76.5083 214.993 76.135C214.853 75.7617 214.655 75.4117 214.398 75.085C214.165 74.7817 213.885 74.525 213.558 74.315C213.232 74.105 212.87 74 212.473 74H196.338C195.942 74 195.58 74.105 195.253 74.315C194.927 74.5483 194.635 74.8167 194.378 75.12C194.145 75.4467 193.947 75.7967 193.783 76.17C193.643 76.5433 193.562 76.87 193.538 77.15H193.188V72.775H194.728C195.475 72.775 196 72.3433 196.303 71.48L204.353 50.375L212.473 71.375C212.637 71.725 212.858 72.0517 213.138 72.355C213.418 72.635 213.745 72.775 214.118 72.775H215.588ZM197.073 72.775H210.548L203.793 55.38L197.073 72.775ZM233.903 73.65H234.078C234.638 73.65 234.918 73.3933 234.918 72.88C234.918 72.6933 234.883 72.495 234.813 72.285L231.663 63.78H225.538L222.493 72.145C222.423 72.3317 222.388 72.5067 222.388 72.67C222.388 72.9733 222.47 73.2183 222.633 73.405C222.797 73.5683 222.972 73.65 223.158 73.65H223.333V74H219.448V73.65H219.623C219.927 73.65 220.218 73.475 220.498 73.125C220.802 72.7517 221.047 72.32 221.233 71.83L229.248 50.48L237.088 71.62C237.252 72.0867 237.473 72.5417 237.753 72.985C238.057 73.4283 238.442 73.65 238.908 73.65H239.083V74H233.903V73.65ZM225.888 62.59H231.278L228.583 55.275L225.888 62.59Z" fill="white"/>
<path d="M128.31 16.0714C128.31 20.3537 126.229 24.2662 124.105 27.1383C123.047 28.5688 121.988 29.7273 121.194 30.5277C120.797 30.9277 120.467 31.2375 120.237 31.4465C120.226 31.4568 120.215 31.4669 120.204 31.4767C120.193 31.4669 120.182 31.4568 120.171 31.4465C119.941 31.2375 119.611 30.9277 119.214 30.5277C118.42 29.7273 117.361 28.5688 116.303 27.1383C114.178 24.2662 112.098 20.3537 112.098 16.0714C112.098 11.7892 114.178 7.87662 116.303 5.00457C117.361 3.57406 118.42 2.41554 119.214 1.61511C119.611 1.21516 119.941 0.905318 120.171 0.696356C120.182 0.686033 120.193 0.675956 120.204 0.666128C120.215 0.675956 120.226 0.686033 120.237 0.696356C120.467 0.905318 120.797 1.21516 121.194 1.61511C121.988 2.41554 123.047 3.57406 124.105 5.00457C126.229 7.87662 128.31 11.7892 128.31 16.0714Z" stroke="white"/>
<path d="M116.111 14.3825C118.808 17.4603 119.842 21.9167 120.188 25.6738C120.36 27.5432 120.36 29.2172 120.316 30.4237C120.294 31.0265 120.262 31.5114 120.235 31.8441C120.232 31.8774 120.23 31.9091 120.227 31.9393C120.201 31.9422 120.173 31.9452 120.144 31.9483C119.852 31.979 119.427 32.0161 118.899 32.041C117.842 32.0907 116.375 32.0912 114.737 31.8948C111.445 31.5001 107.54 30.3192 104.844 27.2414C102.147 24.1635 101.112 19.7071 100.766 15.95C100.594 14.0807 100.594 12.4066 100.638 11.2002C100.66 10.5974 100.692 10.1125 100.719 9.77972C100.722 9.74647 100.725 9.71475 100.727 9.68458C100.754 9.68166 100.781 9.67866 100.81 9.67559C101.102 9.64488 101.527 9.60778 102.055 9.58291C103.112 9.53315 104.579 9.53263 106.217 9.72905C109.509 10.1238 113.414 11.3047 116.111 14.3825Z" stroke="white"/>
<path d="M124.686 14.3825C121.989 17.4603 120.955 21.9167 120.609 25.6738C120.437 27.5432 120.437 29.2172 120.481 30.4237C120.503 31.0265 120.535 31.5114 120.562 31.8441C120.565 31.8774 120.567 31.9091 120.57 31.9393C120.596 31.9422 120.624 31.9452 120.653 31.9483C120.945 31.979 121.37 32.0161 121.898 32.041C122.955 32.0907 124.422 32.0912 126.06 31.8948C129.352 31.5001 133.257 30.3192 135.953 27.2414C138.65 24.1635 139.685 19.7071 140.031 15.95C140.203 14.0807 140.203 12.4066 140.159 11.2002C140.137 10.5974 140.105 10.1125 140.078 9.77972C140.075 9.74647 140.072 9.71475 140.07 9.68458C140.043 9.68166 140.016 9.67866 139.987 9.67559C139.695 9.64488 139.27 9.60778 138.742 9.58291C137.685 9.53315 136.218 9.53263 134.58 9.72905C131.288 10.1238 127.383 11.3047 124.686 14.3825Z" stroke="white"/>
<path d="M80.9287 20.4287H0.571533" stroke="white"/>
<path d="M239.857 20.4287L157.714 20.4287" stroke="white"/>
</svg>
